<svg width="26" height="32" viewBox="0 0 26 32" fill="none" xmlns="http://www.w3.org/2000/svg">
<path d="M22.375 10.6667H20.8125V7.61905C20.8125 3.41333 17.3125 0 13 0C8.6875 0 5.1875 3.41333 5.1875 7.61905V10.6667H3.625C1.90625 10.6667 0.5 12.0381 0.5 13.7143V28.9524C0.5 30.6286 1.90625 32 3.625 32H22.375C24.0938 32 25.5 30.6286 25.5 28.9524V13.7143C25.5 12.0381 24.0938 10.6667 22.375 10.6667ZM8.3125 7.61905C8.3125 5.08952 10.4062 3.04762 13 3.04762C15.5938 3.04762 17.6875 5.08952 17.6875 7.61905V10.6667H8.3125V7.61905ZM22.375 28.9524H3.625V13.7143H22.375V28.9524ZM13 24.381C14.7188 24.381 16.125 23.0095 16.125 21.3333C16.125 19.6571 14.7188 18.2857 13 18.2857C11.2812 18.2857 9.875 19.6571 9.875 21.3333C9.875 23.0095 11.2812 24.381 13 24.381Z" fill="white"/>
</svg>
