<svg width="16" height="17" viewBox="0 0 16 17" fill="none" xmlns="http://www.w3.org/2000/svg">
<path d="M11.3333 2.50033H14C14.1768 2.50033 14.3464 2.57056 14.4714 2.69559C14.5964 2.82061 14.6667 2.99018 14.6667 3.16699V13.8337C14.6667 14.0105 14.5964 14.18 14.4714 14.3051C14.3464 14.4301 14.1768 14.5003 14 14.5003H2.00001C1.8232 14.5003 1.65363 14.4301 1.52861 14.3051C1.40358 14.18 1.33334 14.0105 1.33334 13.8337V3.16699C1.33334 2.99018 1.40358 2.82061 1.52861 2.69559C1.65363 2.57056 1.8232 2.50033 2.00001 2.50033H4.66668V1.16699H6.00001V2.50033H10V1.16699H11.3333V2.50033ZM10 3.83366H6.00001V5.16699H4.66668V3.83366H2.66668V6.50033H13.3333V3.83366H11.3333V5.16699H10V3.83366ZM13.3333 7.83366H2.66668V13.167H13.3333V7.83366ZM4.00001 9.83366H5.33334V11.167H4.00001V9.83366ZM6.66668 9.83366H12V11.167H6.66668V9.83366Z" fill="#2D2D2D"/>
</svg>
