<svg width="16" height="17" viewBox="0 0 16 17" fill="none" xmlns="http://www.w3.org/2000/svg">
<path d="M12 5.16667H14C14.1768 5.16667 14.3464 5.2369 14.4714 5.36193C14.5964 5.48695 14.6667 5.65652 14.6667 5.83333V13.8333C14.6667 14.0101 14.5964 14.1797 14.4714 14.3047C14.3464 14.4298 14.1768 14.5 14 14.5H2.00001C1.8232 14.5 1.65363 14.4298 1.52861 14.3047C1.40358 14.1797 1.33334 14.0101 1.33334 13.8333V3.16667C1.33334 2.98986 1.40358 2.82029 1.52861 2.69526C1.65363 2.57024 1.8232 2.5 2.00001 2.5H12V5.16667ZM2.66668 6.5V13.1667H13.3333V6.5H2.66668ZM2.66668 3.83333V5.16667H10.6667V3.83333H2.66668ZM10 9.16667H12V10.5H10V9.16667Z" fill="#2D2D2D"/>
</svg>
