<svg width="16" height="17" viewBox="0 0 16 17" fill="none" xmlns="http://www.w3.org/2000/svg">
<path d="M14 9.32767V13.833H14.6667V15.1663H1.33332V13.833H1.99999V9.32767C1.58957 9.05373 1.25313 8.6827 1.02054 8.24752C0.787941 7.81233 0.666385 7.32645 0.666657 6.83301C0.666657 6.28167 0.81599 5.75034 1.08866 5.29767L2.89666 2.16634C2.95517 2.065 3.03932 1.98084 3.14067 1.92233C3.24201 1.86382 3.35697 1.83301 3.47399 1.83301H12.5267C12.6437 1.83301 12.7586 1.86382 12.86 1.92233C12.9613 1.98084 13.0455 2.065 13.104 2.16634L14.9053 5.28767C15.303 5.94826 15.4309 6.7367 15.2623 7.4891C15.0937 8.24151 14.6416 8.89999 14 9.32767ZM12.6667 9.81434C12.2083 9.86576 11.7442 9.8107 11.3106 9.65344C10.877 9.49618 10.4855 9.24097 10.1667 8.90768C9.8868 9.20039 9.55052 9.43336 9.17813 9.59251C8.80574 9.75166 8.40496 9.8337 7.99999 9.83367C7.59511 9.83387 7.19439 9.75204 6.82201 9.59312C6.44962 9.4342 6.1133 9.20148 5.83332 8.90901C5.51441 9.24219 5.12291 9.49727 4.68929 9.65442C4.25568 9.81156 3.79165 9.86651 3.33332 9.81501V13.833H12.6667V9.81434ZM3.85932 3.16634L2.23732 5.97501C2.07971 6.36444 2.07498 6.79903 2.22408 7.19179C2.37318 7.58456 2.66511 7.90654 3.04144 8.09327C3.41778 8.28001 3.85075 8.31773 4.25371 8.19889C4.65667 8.08004 4.99988 7.81341 5.21466 7.45234C5.43799 6.89434 6.22799 6.89434 6.45199 7.45234C6.57552 7.76195 6.78906 8.02741 7.06501 8.21441C7.34096 8.40141 7.66665 8.50137 7.99999 8.50137C8.33334 8.50137 8.65902 8.40141 8.93497 8.21441C9.21092 8.02741 9.42446 7.76195 9.54799 7.45234C9.77132 6.89434 10.5613 6.89434 10.7853 7.45234C10.8718 7.66531 11.0015 7.85807 11.1661 8.01852C11.3307 8.17898 11.5267 8.30364 11.7418 8.38469C11.9569 8.46573 12.1865 8.50141 12.416 8.48946C12.6456 8.47752 12.8702 8.41822 13.0757 8.31529C13.2813 8.21236 13.4633 8.06803 13.6104 7.89136C13.7574 7.7147 13.8664 7.50952 13.9303 7.28872C13.9943 7.06793 14.0118 6.83629 13.982 6.60838C13.9521 6.38046 13.8754 6.16119 13.7567 5.96434L12.14 3.16634H3.85932Z" fill="#2D2D2D"/>
</svg>
