<svg width="32" height="31" viewBox="0 0 32 31" fill="none" xmlns="http://www.w3.org/2000/svg">
<path d="M16 0C7.444 0 0.5 6.944 0.5 15.5C0.5 24.056 7.444 31 16 31C24.556 31 31.5 24.056 31.5 15.5C31.5 6.944 24.556 0 16 0ZM8.3585 25.234C9.025 23.839 13.086 22.475 16 22.475C18.914 22.475 22.9905 23.839 23.6415 25.234C21.5335 26.908 18.883 27.9 16 27.9C13.117 27.9 10.4665 26.908 8.3585 25.234ZM25.858 22.9865C23.6415 20.2895 18.263 19.375 16 19.375C13.737 19.375 8.3585 20.2895 6.142 22.9865C4.561 20.9095 3.6 18.321 3.6 15.5C3.6 8.6645 9.1645 3.1 16 3.1C22.8355 3.1 28.4 8.6645 28.4 15.5C28.4 18.321 27.439 20.9095 25.858 22.9865ZM16 6.2C12.993 6.2 10.575 8.618 10.575 11.625C10.575 14.632 12.993 17.05 16 17.05C19.007 17.05 21.425 14.632 21.425 11.625C21.425 8.618 19.007 6.2 16 6.2ZM16 13.95C14.7135 13.95 13.675 12.9115 13.675 11.625C13.675 10.3385 14.7135 9.3 16 9.3C17.2865 9.3 18.325 10.3385 18.325 11.625C18.325 12.9115 17.2865 13.95 16 13.95Z" fill="white"/>
</svg>
