<svg width="25" height="24" viewBox="0 0 25 24" fill="none" xmlns="http://www.w3.org/2000/svg">
<path d="M2.83995 21.375H4.25423L18.4935 7.53125L17.0792 6.15625L2.83995 20V21.375ZM22.5757 6.1875L18.4614 2.1875L19.8114 0.875C20.1757 0.520833 20.6257 0.34375 21.1614 0.34375C21.6971 0.34375 22.1471 0.520833 22.5114 0.875L23.9257 2.25C24.2899 2.60417 24.4721 3.04167 24.4721 3.5625C24.4721 4.08333 24.2899 4.52083 23.9257 4.875L22.5757 6.1875ZM21.2257 7.5L5.02566 23.25H0.911377V19.25L17.1114 3.5L21.2257 7.5ZM17.7864 6.84375L17.0792 6.15625L18.4935 7.53125L17.7864 6.84375Z" fill="#6C6FF5"/>
</svg>
